<svg width="100" height="100" viewBox="0 0 100 100" fill="none" xmlns="http://www.w3.org/2000/svg">
<g clip-path="url(#clip0_214_390)">
<rect width="100" height="100" rx="10" fill="white"/>
<rect width="100" height="100" fill="#DCB013"/>
<g filter="url(#filter0_d_214_390)">
<path d="M18.9077 66L9.95881 33.2727H13.9858L20.8253 59.9276H21.1449L28.1122 33.2727H32.5866L39.554 59.9276H39.8736L46.7131 33.2727H50.7401L41.7912 66H37.7003L30.4773 39.9205H30.2216L22.9986 66H18.9077Z" fill="white"/>
<path d="M55.6779 33.2727H60.408L71.5302 60.4389H71.9137L83.0359 33.2727H87.766V66H84.0586V41.1349H83.739L73.5117 66H69.9322L59.7049 41.1349H59.3853V66H55.6779V33.2727Z" fill="#10243D"/>
</g>
</g>
<defs>
<filter id="filter0_d_214_390" x="5.9588" y="33.2727" width="85.8072" height="40.7273" filterUnits="userSpaceOnUse" color-interpolation-filters="sRGB">
<feFlood flood-opacity="0" result="BackgroundImageFix"/>
<feColorMatrix in="SourceAlpha" type="matrix" values="0 0 0 0 0 0 0 0 0 0 0 0 0 0 0 0 0 0 127 0" result="hardAlpha"/>
<feOffset dy="4"/>
<feGaussianBlur stdDeviation="2"/>
<feComposite in2="hardAlpha" operator="out"/>
<feColorMatrix type="matrix" values="0 0 0 0 0 0 0 0 0 0 0 0 0 0 0 0 0 0 0.25 0"/>
<feBlend mode="normal" in2="BackgroundImageFix" result="effect1_dropShadow_214_390"/>
<feBlend mode="normal" in="SourceGraphic" in2="effect1_dropShadow_214_390" result="shape"/>
</filter>
<clipPath id="clip0_214_390">
<rect width="100" height="100" rx="10" fill="white"/>
</clipPath>
</defs>
</svg>
